<svg xmlns="http://www.w3.org/2000/svg" viewBox="0 0 1600 1000" preserveAspectRatio="xMidYMid slice">
<defs>
 <linearGradient id="sky" x1="0" y1="0" x2="0" y2="1">
   <stop offset="0" stop-color="#160c2a"/>
   <stop offset="0.5" stop-color="#100a1e"/>
   <stop offset="1" stop-color="#07050e"/>
 </linearGradient>
 <radialGradient id="glow" cx="42%" cy="46%" r="62%">
   <stop offset="0" stop-color="#9D6BFF" stop-opacity="0.5"/>
   <stop offset="0.38" stop-color="#5a2ea8" stop-opacity="0.20"/>
   <stop offset="1" stop-color="#0a0714" stop-opacity="0"/>
 </radialGradient>
 <radialGradient id="vig" cx="50%" cy="44%" r="78%">
   <stop offset="0.5" stop-color="#07050e" stop-opacity="0"/>
   <stop offset="1" stop-color="#050308" stop-opacity="0.92"/>
 </radialGradient>
 <filter id="haze" x="-20%" y="-20%" width="140%" height="140%">
   <feTurbulence type="fractalNoise" baseFrequency="0.011 0.015" numOctaves="2" seed="12" stitchTiles="stitch"/>
   <feColorMatrix values="0 0 0 0 0.62  0 0 0 0 0.42  0 0 0 0 1.0  0 0 0 0.55 0"/>
   <feGaussianBlur stdDeviation="7"/>
   <feComponentTransfer><feFuncA type="linear" slope="0.55"/></feComponentTransfer>
 </filter>
 <filter id="blur1"><feGaussianBlur stdDeviation="1.6"/></filter>
 <filter id="blur6"><feGaussianBlur stdDeviation="6"/></filter>
</defs>
<rect width="1600" height="1000" fill="url(#sky)"/>
<rect width="1600" height="1000" fill="url(#haze)" opacity="0.5"/>
<rect width="1600" height="1000" fill="url(#glow)"/>
<g fill="none"><line x1="428" y1="814" x2="292" y2="633" stroke="#9D6BFF" stroke-width="1" opacity="0.07"/>
<line x1="428" y1="814" x2="381" y2="721" stroke="#9D6BFF" stroke-width="1" opacity="0.18"/>
<line x1="428" y1="814" x2="674" y2="771" stroke="#9D6BFF" stroke-width="1" opacity="0.05"/>
<line x1="428" y1="814" x2="471" y2="834" stroke="#9D6BFF" stroke-width="1" opacity="0.24"/>
<line x1="428" y1="814" x2="633" y2="603" stroke="#9D6BFF" stroke-width="1" opacity="0.01"/>
<line x1="428" y1="814" x2="580" y2="624" stroke="#9D6BFF" stroke-width="1" opacity="0.05"/>
<line x1="428" y1="814" x2="384" y2="802" stroke="#9D6BFF" stroke-width="1" opacity="0.24"/>
<line x1="428" y1="814" x2="605" y2="755" stroke="#9D6BFF" stroke-width="1" opacity="0.11"/>
<line x1="428" y1="814" x2="304" y2="675" stroke="#9D6BFF" stroke-width="1" opacity="0.11"/>
<line x1="428" y1="814" x2="253" y2="623" stroke="#9D6BFF" stroke-width="1" opacity="0.04"/>
<line x1="292" y1="633" x2="381" y2="721" stroke="#9D6BFF" stroke-width="1" opacity="0.16"/>
<line x1="292" y1="633" x2="471" y2="834" stroke="#9D6BFF" stroke-width="1" opacity="0.03"/>
<line x1="292" y1="633" x2="206" y2="574" stroke="#9D6BFF" stroke-width="1" opacity="0.18"/>
<line x1="292" y1="633" x2="580" y2="624" stroke="#9D6BFF" stroke-width="1" opacity="0.01"/>
<line x1="292" y1="633" x2="384" y2="802" stroke="#9D6BFF" stroke-width="1" opacity="0.10"/>
<line x1="292" y1="633" x2="304" y2="675" stroke="#9D6BFF" stroke-width="1" opacity="0.24"/>
<line x1="292" y1="633" x2="253" y2="623" stroke="#9D6BFF" stroke-width="1" opacity="0.24"/>
<line x1="236" y1="313" x2="242" y2="304" stroke="#9D6BFF" stroke-width="1" opacity="0.27"/>
<line x1="236" y1="313" x2="147" y2="327" stroke="#9D6BFF" stroke-width="1" opacity="0.20"/>
<line x1="236" y1="313" x2="206" y2="574" stroke="#9D6BFF" stroke-width="1" opacity="0.03"/>
<line x1="236" y1="313" x2="313" y2="185" stroke="#9D6BFF" stroke-width="1" opacity="0.14"/>
<line x1="1479" y1="287" x2="1346" y2="547" stroke="#9D6BFF" stroke-width="1" opacity="0.01"/>
<line x1="1479" y1="287" x2="1407" y2="482" stroke="#9D6BFF" stroke-width="1" opacity="0.09"/>
<line x1="1479" y1="287" x2="1318" y2="340" stroke="#9D6BFF" stroke-width="1" opacity="0.12"/>
<line x1="993" y1="461" x2="736" y2="486" stroke="#9D6BFF" stroke-width="1" opacity="0.04"/>
<line x1="993" y1="461" x2="797" y2="595" stroke="#9D6BFF" stroke-width="1" opacity="0.06"/>
<line x1="993" y1="461" x2="907" y2="650" stroke="#9D6BFF" stroke-width="1" opacity="0.09"/>
<line x1="736" y1="486" x2="674" y2="771" stroke="#9D6BFF" stroke-width="1" opacity="0.01"/>
<line x1="736" y1="486" x2="636" y2="220" stroke="#9D6BFF" stroke-width="1" opacity="0.01"/>
<line x1="736" y1="486" x2="633" y2="603" stroke="#9D6BFF" stroke-width="1" opacity="0.13"/>
<line x1="736" y1="486" x2="580" y2="624" stroke="#9D6BFF" stroke-width="1" opacity="0.09"/>
<line x1="736" y1="486" x2="797" y2="595" stroke="#9D6BFF" stroke-width="1" opacity="0.16"/>
<line x1="736" y1="486" x2="907" y2="650" stroke="#9D6BFF" stroke-width="1" opacity="0.06"/>
<line x1="736" y1="486" x2="605" y2="755" stroke="#9D6BFF" stroke-width="1" opacity="0.00"/>
<line x1="381" y1="721" x2="674" y2="771" stroke="#9D6BFF" stroke-width="1" opacity="0.00"/>
<line x1="381" y1="721" x2="471" y2="834" stroke="#9D6BFF" stroke-width="1" opacity="0.15"/>
<line x1="381" y1="721" x2="206" y2="574" stroke="#9D6BFF" stroke-width="1" opacity="0.07"/>
<line x1="381" y1="721" x2="633" y2="603" stroke="#9D6BFF" stroke-width="1" opacity="0.02"/>
<line x1="381" y1="721" x2="580" y2="624" stroke="#9D6BFF" stroke-width="1" opacity="0.07"/>
<line x1="381" y1="721" x2="384" y2="802" stroke="#9D6BFF" stroke-width="1" opacity="0.20"/>
<line x1="381" y1="721" x2="605" y2="755" stroke="#9D6BFF" stroke-width="1" opacity="0.07"/>
<line x1="381" y1="721" x2="304" y2="675" stroke="#9D6BFF" stroke-width="1" opacity="0.20"/>
<line x1="381" y1="721" x2="253" y2="623" stroke="#9D6BFF" stroke-width="1" opacity="0.13"/>
<line x1="242" y1="304" x2="147" y2="327" stroke="#9D6BFF" stroke-width="1" opacity="0.19"/>
<line x1="242" y1="304" x2="206" y2="574" stroke="#9D6BFF" stroke-width="1" opacity="0.03"/>
<line x1="242" y1="304" x2="313" y2="185" stroke="#9D6BFF" stroke-width="1" opacity="0.15"/>
<line x1="147" y1="327" x2="206" y2="574" stroke="#9D6BFF" stroke-width="1" opacity="0.04"/>
<line x1="147" y1="327" x2="313" y2="185" stroke="#9D6BFF" stroke-width="1" opacity="0.08"/>
<line x1="674" y1="771" x2="471" y2="834" stroke="#9D6BFF" stroke-width="1" opacity="0.08"/>
<line x1="674" y1="771" x2="633" y2="603" stroke="#9D6BFF" stroke-width="1" opacity="0.12"/>
<line x1="674" y1="771" x2="580" y2="624" stroke="#9D6BFF" stroke-width="1" opacity="0.12"/>
<line x1="674" y1="771" x2="797" y2="595" stroke="#9D6BFF" stroke-width="1" opacity="0.08"/>
<line x1="674" y1="771" x2="384" y2="802" stroke="#9D6BFF" stroke-width="1" opacity="0.01"/>
<line x1="674" y1="771" x2="907" y2="650" stroke="#9D6BFF" stroke-width="1" opacity="0.03"/>
<line x1="674" y1="771" x2="605" y2="755" stroke="#9D6BFF" stroke-width="1" opacity="0.21"/>
<line x1="471" y1="834" x2="633" y2="603" stroke="#9D6BFF" stroke-width="1" opacity="0.02"/>
<line x1="471" y1="834" x2="580" y2="624" stroke="#9D6BFF" stroke-width="1" opacity="0.06"/>
<line x1="471" y1="834" x2="384" y2="802" stroke="#9D6BFF" stroke-width="1" opacity="0.19"/>
<line x1="471" y1="834" x2="605" y2="755" stroke="#9D6BFF" stroke-width="1" opacity="0.13"/>
<line x1="471" y1="834" x2="304" y2="675" stroke="#9D6BFF" stroke-width="1" opacity="0.06"/>
<line x1="206" y1="574" x2="384" y2="802" stroke="#9D6BFF" stroke-width="1" opacity="0.01"/>
<line x1="206" y1="574" x2="304" y2="675" stroke="#9D6BFF" stroke-width="1" opacity="0.15"/>
<line x1="206" y1="574" x2="253" y2="623" stroke="#9D6BFF" stroke-width="1" opacity="0.22"/>
<line x1="633" y1="603" x2="580" y2="624" stroke="#9D6BFF" stroke-width="1" opacity="0.23"/>
<line x1="633" y1="603" x2="797" y2="595" stroke="#9D6BFF" stroke-width="1" opacity="0.13"/>
<line x1="633" y1="603" x2="907" y2="650" stroke="#9D6BFF" stroke-width="1" opacity="0.02"/>
<line x1="633" y1="603" x2="605" y2="755" stroke="#9D6BFF" stroke-width="1" opacity="0.14"/>
<line x1="580" y1="624" x2="797" y2="595" stroke="#9D6BFF" stroke-width="1" opacity="0.08"/>
<line x1="580" y1="624" x2="384" y2="802" stroke="#9D6BFF" stroke-width="1" opacity="0.03"/>
<line x1="580" y1="624" x2="605" y2="755" stroke="#9D6BFF" stroke-width="1" opacity="0.16"/>
<line x1="580" y1="624" x2="304" y2="675" stroke="#9D6BFF" stroke-width="1" opacity="0.02"/>
<line x1="797" y1="595" x2="907" y2="650" stroke="#9D6BFF" stroke-width="1" opacity="0.16"/>
<line x1="797" y1="595" x2="605" y2="755" stroke="#9D6BFF" stroke-width="1" opacity="0.05"/>
<line x1="1346" y1="547" x2="1407" y2="482" stroke="#9D6BFF" stroke-width="1" opacity="0.20"/>
<line x1="1346" y1="547" x2="1318" y2="340" stroke="#9D6BFF" stroke-width="1" opacity="0.08"/>
<line x1="1407" y1="482" x2="1318" y2="340" stroke="#9D6BFF" stroke-width="1" opacity="0.12"/>
<line x1="384" y1="802" x2="605" y2="755" stroke="#9D6BFF" stroke-width="1" opacity="0.07"/>
<line x1="384" y1="802" x2="304" y2="675" stroke="#9D6BFF" stroke-width="1" opacity="0.14"/>
<line x1="384" y1="802" x2="253" y2="623" stroke="#9D6BFF" stroke-width="1" opacity="0.07"/>
<line x1="907" y1="650" x2="1075" y2="805" stroke="#9D6BFF" stroke-width="1" opacity="0.07"/>
<line x1="304" y1="675" x2="253" y2="623" stroke="#9D6BFF" stroke-width="1" opacity="0.21"/></g>
<circle cx="428" cy="814" r="11" fill="#9D6BFF" opacity="0.10" filter="url(#blur1)"/><circle cx="428" cy="814" r="5.0" fill="#D6C7FF" opacity="0.9"/>
<circle cx="292" cy="633" r="10" fill="#9D6BFF" opacity="0.10" filter="url(#blur1)"/><circle cx="292" cy="633" r="4.0" fill="#D6C7FF" opacity="0.9"/>
<circle cx="236" cy="313" r="9" fill="#9D6BFF" opacity="0.10" filter="url(#blur1)"/><circle cx="236" cy="313" r="3.1" fill="#D6C7FF" opacity="0.9"/>
<circle cx="1479" cy="287" r="9" fill="#9D6BFF" opacity="0.10" filter="url(#blur1)"/><circle cx="1479" cy="287" r="3.0" fill="#D6C7FF" opacity="0.9"/>
<circle cx="993" cy="461" r="10" fill="#9D6BFF" opacity="0.10" filter="url(#blur1)"/><circle cx="993" cy="461" r="4.1" fill="#D6C7FF" opacity="0.9"/>
<circle cx="736" cy="486" r="10" fill="#9D6BFF" opacity="0.10" filter="url(#blur1)"/><circle cx="736" cy="486" r="4.0" fill="#D6C7FF" opacity="0.9"/>
<circle cx="381" cy="721" r="9" fill="#9D6BFF" opacity="0.10" filter="url(#blur1)"/><circle cx="381" cy="721" r="2.7" fill="#D6C7FF" opacity="0.9"/>
<circle cx="242" cy="304" r="11" fill="#9D6BFF" opacity="0.10" filter="url(#blur1)"/><circle cx="242" cy="304" r="5.2" fill="#D6C7FF" opacity="0.9"/>
<circle cx="147" cy="327" r="10" fill="#9D6BFF" opacity="0.10" filter="url(#blur1)"/><circle cx="147" cy="327" r="4.0" fill="#D6C7FF" opacity="0.9"/>
<circle cx="674" cy="771" r="11" fill="#9D6BFF" opacity="0.10" filter="url(#blur1)"/><circle cx="674" cy="771" r="4.6" fill="#D6C7FF" opacity="0.9"/>
<circle cx="636" cy="220" r="9" fill="#9D6BFF" opacity="0.10" filter="url(#blur1)"/><circle cx="636" cy="220" r="3.2" fill="#D6C7FF" opacity="0.9"/>
<circle cx="471" cy="834" r="9" fill="#9D6BFF" opacity="0.10" filter="url(#blur1)"/><circle cx="471" cy="834" r="3.2" fill="#D6C7FF" opacity="0.9"/>
<circle cx="206" cy="574" r="9" fill="#9D6BFF" opacity="0.10" filter="url(#blur1)"/><circle cx="206" cy="574" r="2.5" fill="#D6C7FF" opacity="0.9"/>
<circle cx="633" cy="603" r="10" fill="#9D6BFF" opacity="0.10" filter="url(#blur1)"/><circle cx="633" cy="603" r="3.5" fill="#D6C7FF" opacity="0.9"/>
<circle cx="580" cy="624" r="9" fill="#9D6BFF" opacity="0.10" filter="url(#blur1)"/><circle cx="580" cy="624" r="3.3" fill="#D6C7FF" opacity="0.9"/>
<circle cx="797" cy="595" r="10" fill="#9D6BFF" opacity="0.10" filter="url(#blur1)"/><circle cx="797" cy="595" r="3.8" fill="#D6C7FF" opacity="0.9"/>
<circle cx="1346" cy="547" r="10" fill="#9D6BFF" opacity="0.10" filter="url(#blur1)"/><circle cx="1346" cy="547" r="3.6" fill="#D6C7FF" opacity="0.9"/>
<circle cx="313" cy="185" r="11" fill="#9D6BFF" opacity="0.10" filter="url(#blur1)"/><circle cx="313" cy="185" r="5.0" fill="#D6C7FF" opacity="0.9"/>
<circle cx="1407" cy="482" r="11" fill="#9D6BFF" opacity="0.10" filter="url(#blur1)"/><circle cx="1407" cy="482" r="5.2" fill="#D6C7FF" opacity="0.9"/>
<circle cx="384" cy="802" r="9" fill="#9D6BFF" opacity="0.10" filter="url(#blur1)"/><circle cx="384" cy="802" r="3.0" fill="#D6C7FF" opacity="0.9"/>
<circle cx="907" cy="650" r="10" fill="#9D6BFF" opacity="0.10" filter="url(#blur1)"/><circle cx="907" cy="650" r="3.7" fill="#D6C7FF" opacity="0.9"/>
<circle cx="1318" cy="340" r="9" fill="#9D6BFF" opacity="0.10" filter="url(#blur1)"/><circle cx="1318" cy="340" r="3.0" fill="#D6C7FF" opacity="0.9"/>
<circle cx="605" cy="755" r="10" fill="#9D6BFF" opacity="0.10" filter="url(#blur1)"/><circle cx="605" cy="755" r="4.5" fill="#D6C7FF" opacity="0.9"/>
<circle cx="304" cy="675" r="11" fill="#9D6BFF" opacity="0.10" filter="url(#blur1)"/><circle cx="304" cy="675" r="5.4" fill="#D6C7FF" opacity="0.9"/>
<circle cx="253" cy="623" r="9" fill="#9D6BFF" opacity="0.10" filter="url(#blur1)"/><circle cx="253" cy="623" r="3.1" fill="#D6C7FF" opacity="0.9"/>
<circle cx="1075" cy="805" r="11" fill="#9D6BFF" opacity="0.10" filter="url(#blur1)"/><circle cx="1075" cy="805" r="4.8" fill="#D6C7FF" opacity="0.9"/>
<g><circle cx="480.1" cy="13.2" r="1.9" fill="#D6C7FF" opacity="0.26"/>
<circle cx="697.0" cy="231.7" r="1.2" fill="#eaf1ff" opacity="0.31"/>
<circle cx="941.6" cy="288.7" r="0.7" fill="#D6C7FF" opacity="0.12"/>
<circle cx="833.5" cy="360.2" r="2.0" fill="#eaf1ff" opacity="0.34"/>
<circle cx="1568.1" cy="63.0" r="0.5" fill="#D6C7FF" opacity="0.15"/>
<circle cx="917.9" cy="743.8" r="1.1" fill="#D6C7FF" opacity="0.58"/>
<circle cx="1337.1" cy="210.1" r="2.1" fill="#eaf1ff" opacity="0.10"/>
<circle cx="1215.0" cy="990.5" r="1.5" fill="#eaf1ff" opacity="0.17"/>
<circle cx="706.4" cy="83.4" r="1.6" fill="#eaf1ff" opacity="0.34"/>
<circle cx="247.2" cy="122.0" r="1.5" fill="#D6C7FF" opacity="0.32"/>
<circle cx="703.2" cy="725.5" r="1.8" fill="#D6C7FF" opacity="0.33"/>
<circle cx="577.3" cy="225.5" r="0.9" fill="#D6C7FF" opacity="0.31"/>
<circle cx="1160.2" cy="708.3" r="1.6" fill="#D6C7FF" opacity="0.09"/>
<circle cx="691.9" cy="93.3" r="2.2" fill="#eaf1ff" opacity="0.47"/>
<circle cx="1128.3" cy="200.7" r="0.9" fill="#eaf1ff" opacity="0.35"/>
<circle cx="1035.6" cy="6.7" r="1.6" fill="#eaf1ff" opacity="0.55"/>
<circle cx="1484.1" cy="981.7" r="0.9" fill="#eaf1ff" opacity="0.23"/>
<circle cx="1562.9" cy="369.3" r="2.2" fill="#eaf1ff" opacity="0.52"/>
<circle cx="1000.2" cy="957.1" r="1.9" fill="#eaf1ff" opacity="0.23"/>
<circle cx="313.2" cy="370.0" r="2.2" fill="#D6C7FF" opacity="0.52"/>
<circle cx="464.8" cy="613.0" r="2.0" fill="#eaf1ff" opacity="0.44"/>
<circle cx="1164.9" cy="820.9" r="1.6" fill="#eaf1ff" opacity="0.27"/>
<circle cx="783.9" cy="528.9" r="2.0" fill="#D6C7FF" opacity="0.22"/>
<circle cx="1173.0" cy="270.9" r="1.3" fill="#eaf1ff" opacity="0.14"/>
<circle cx="438.3" cy="291.6" r="1.9" fill="#D6C7FF" opacity="0.34"/>
<circle cx="1421.4" cy="411.8" r="1.2" fill="#eaf1ff" opacity="0.58"/>
<circle cx="1195.8" cy="249.9" r="2.0" fill="#eaf1ff" opacity="0.39"/>
<circle cx="588.7" cy="780.8" r="1.9" fill="#eaf1ff" opacity="0.28"/>
<circle cx="1248.4" cy="993.1" r="2.2" fill="#D6C7FF" opacity="0.49"/>
<circle cx="976.5" cy="685.0" r="0.7" fill="#eaf1ff" opacity="0.32"/>
<circle cx="1448.7" cy="925.3" r="0.7" fill="#eaf1ff" opacity="0.40"/>
<circle cx="1044.3" cy="319.9" r="0.6" fill="#eaf1ff" opacity="0.56"/>
<circle cx="1045.8" cy="366.2" r="2.0" fill="#eaf1ff" opacity="0.50"/>
<circle cx="959.6" cy="319.3" r="1.0" fill="#D6C7FF" opacity="0.27"/></g>
<rect width="1600" height="1000" fill="url(#vig)"/>
</svg>
